<svg xmlns="http://www.w3.org/2000/svg" xmlns:xlink="http://www.w3.org/1999/xlink" width="1080" zoomAndPan="magnify" viewBox="0 0 810 809.999993" height="1080" preserveAspectRatio="xMidYMid meet" version="1.0"><defs><g/></defs><rect x="-81" width="972" fill="#ffffff" y="-80.999999" height="971.999992" fill-opacity="1"/><rect x="-81" width="972" fill="#123f44" y="-80.999999" height="971.999992" fill-opacity="1"/><g fill="#d5be76" fill-opacity="1"><g transform="translate(237.559726, 381.796753)"><g><path d="M 82.28125 -116.171875 C 76.03125 -116.171875 70.785156 -114.804688 66.546875 -112.078125 C 62.316406 -109.359375 58.988281 -106.285156 56.5625 -102.859375 C 54.144531 -99.429688 52.4375 -96.707031 51.4375 -94.6875 C 45.78125 -81.78125 41.390625 -67.710938 38.265625 -52.484375 C 35.140625 -37.253906 33.578125 -19.757812 33.578125 0 L 10.59375 0 L 10.59375 -213.59375 L 33.578125 -213.59375 L 33.578125 -38.71875 C 36.003906 -57.476562 40.039062 -74.066406 45.6875 -88.484375 C 51.332031 -102.910156 58.390625 -116.320312 66.859375 -128.71875 C 75.328125 -141.125 84.90625 -153.679688 95.59375 -166.390625 C 95.59375 -166.390625 96.601562 -167.648438 98.625 -170.171875 C 100.644531 -172.691406 102.960938 -175.867188 105.578125 -179.703125 C 108.203125 -183.535156 110.519531 -187.617188 112.53125 -191.953125 C 114.550781 -196.285156 115.613281 -200.421875 115.71875 -204.359375 C 115.820312 -208.296875 114.257812 -211.375 111.03125 -213.59375 L 161.25 -213.59375 C 156.007812 -212.582031 150.710938 -210.5625 145.359375 -207.53125 C 140.015625 -204.507812 135.125 -201.285156 130.6875 -197.859375 C 126.25 -194.429688 122.671875 -191.503906 119.953125 -189.078125 C 117.234375 -186.660156 115.769531 -185.453125 115.5625 -185.453125 C 103.863281 -171.941406 93.125 -159.132812 83.34375 -147.03125 C 73.5625 -134.925781 65.039062 -122.019531 57.78125 -108.3125 C 60.40625 -110.925781 63.734375 -113.289062 67.765625 -115.40625 C 71.796875 -117.53125 76.632812 -118.59375 82.28125 -118.59375 C 92.976562 -118.59375 101.851562 -116.625 108.90625 -112.6875 C 115.96875 -108.757812 121.867188 -103.566406 126.609375 -97.109375 C 131.347656 -90.660156 135.484375 -83.5 139.015625 -75.625 C 142.546875 -67.757812 146.023438 -59.894531 149.453125 -52.03125 C 153.484375 -43.15625 157.460938 -34.9375 161.390625 -27.375 C 165.328125 -19.8125 169.816406 -13.757812 174.859375 -9.21875 C 179.898438 -4.6875 185.953125 -2.421875 193.015625 -2.421875 L 193.015625 0 C 177.285156 0 164.832031 -2.113281 155.65625 -6.34375 C 146.476562 -10.582031 139.519531 -16.128906 134.78125 -22.984375 C 130.039062 -29.847656 126.710938 -37.414062 124.796875 -45.6875 C 122.878906 -53.957031 121.316406 -62.222656 120.109375 -70.484375 C 118.898438 -78.753906 117.234375 -86.316406 115.109375 -93.171875 C 112.992188 -100.035156 109.460938 -105.582031 104.515625 -109.8125 C 99.578125 -114.050781 92.164062 -116.171875 82.28125 -116.171875 Z M 82.28125 -116.171875 "/></g></g></g><g fill="#d5be76" fill-opacity="1"><g transform="translate(381.670734, 513.206363)"><g><path d="M 10.59375 -213.59375 L 33.28125 -213.59375 C 49.820312 -213.59375 64.492188 -207.992188 77.296875 -196.796875 C 90.097656 -185.597656 100.835938 -171.226562 109.515625 -153.6875 C 118.390625 -137.144531 125.445312 -118.941406 130.6875 -99.078125 C 135.9375 -79.210938 139.671875 -59.5 141.890625 -39.9375 L 141.890625 -213.59375 L 164.578125 -213.59375 L 164.578125 0 L 141.890625 0 C 141.890625 -16.132812 140.628906 -33.175781 138.109375 -51.125 C 135.585938 -69.070312 131.851562 -86.816406 126.90625 -104.359375 C 121.96875 -121.910156 115.769531 -137.945312 108.3125 -152.46875 C 99.226562 -169.820312 88.535156 -183.992188 76.234375 -194.984375 C 63.929688 -205.972656 49.613281 -211.46875 33.28125 -211.46875 L 33.28125 0 L 10.59375 0 Z M 10.59375 -213.59375 "/></g></g></g><g fill="#d5be76" fill-opacity="1"><g transform="translate(244.096309, 605.121782)"><g><path d="M 1.578125 -44.890625 L 7.59375 -44.890625 C 6.988281 -44.296875 6.585938 -43.398438 6.390625 -42.203125 C 6.203125 -41.003906 6.113281 -39.65625 6.125 -38.15625 C 6.144531 -36.65625 6.15625 -35.160156 6.15625 -33.671875 L 6.15625 -3.40625 C 9.414062 -8.050781 12.296875 -12.109375 14.796875 -15.578125 C 17.296875 -19.046875 19.195312 -21.96875 20.5 -24.34375 C 21.800781 -26.726562 22.253906 -28.566406 21.859375 -29.859375 L 28.6875 -29.859375 C 27.84375 -29.554688 26.785156 -28.742188 25.515625 -27.421875 C 24.242188 -26.109375 22.851562 -24.476562 21.34375 -22.53125 C 19.832031 -20.59375 18.300781 -18.53125 16.75 -16.34375 C 17.789062 -14.988281 18.738281 -13.796875 19.59375 -12.765625 C 20.445312 -11.734375 21.253906 -10.738281 22.015625 -9.78125 C 22.773438 -8.820312 23.570312 -7.8125 24.40625 -6.75 C 25.25 -5.6875 26.195312 -4.46875 27.25 -3.09375 C 27.84375 -2.34375 28.476562 -1.710938 29.15625 -1.203125 C 29.832031 -0.703125 30.453125 -0.375 31.015625 -0.21875 L 31.015625 0 L 26.34375 0 C 25.894531 0 25.550781 -0.09375 25.3125 -0.28125 C 25.070312 -0.476562 24.832031 -0.742188 24.59375 -1.078125 C 23.457031 -2.628906 22.398438 -4.023438 21.421875 -5.265625 C 20.453125 -6.515625 19.453125 -7.789062 18.421875 -9.09375 C 17.390625 -10.394531 16.1875 -11.925781 14.8125 -13.6875 C 13.53125 -11.894531 12.296875 -10.148438 11.109375 -8.453125 C 9.929688 -6.765625 8.847656 -5.25 7.859375 -3.90625 C 6.867188 -2.5625 6.035156 -1.5 5.359375 -0.71875 C 4.691406 0.0625 4.222656 0.453125 3.953125 0.453125 C 3.554688 0.453125 3.296875 0.28125 3.171875 -0.0625 C 3.054688 -0.40625 3 -0.757812 3 -1.125 L 3 -33.671875 C 3 -35.160156 3.003906 -36.65625 3.015625 -38.15625 C 3.035156 -39.65625 2.945312 -41.003906 2.75 -42.203125 C 2.5625 -43.398438 2.171875 -44.296875 1.578125 -44.890625 Z M 1.578125 -44.890625 "/></g></g></g><g fill="#d5be76" fill-opacity="1"><g transform="translate(281.440087, 605.121782)"><g><path d="M 2.25 -15.3125 C 2.25 -17.195312 2.546875 -19.03125 3.140625 -20.8125 C 3.742188 -22.59375 4.648438 -24.195312 5.859375 -25.625 C 7.066406 -27.0625 8.613281 -28.195312 10.5 -29.03125 C 12.382812 -29.875 14.597656 -30.296875 17.140625 -30.296875 C 19.566406 -30.296875 21.742188 -29.78125 23.671875 -28.75 C 25.609375 -27.71875 27.132812 -26.328125 28.25 -24.578125 C 29.375 -22.828125 29.9375 -20.84375 29.9375 -18.625 C 29.9375 -18.144531 29.90625 -17.628906 29.84375 -17.078125 C 29.789062 -16.523438 29.6875 -16.050781 29.53125 -15.65625 C 29.382812 -15.269531 29.191406 -15.078125 28.953125 -15.078125 L 5.65625 -15.078125 C 5.6875 -12.472656 6.035156 -10.28125 6.703125 -8.5 C 7.378906 -6.71875 8.285156 -5.289062 9.421875 -4.21875 C 10.566406 -3.144531 11.832031 -2.367188 13.21875 -1.890625 C 14.613281 -1.410156 16.03125 -1.171875 17.46875 -1.171875 C 19.050781 -1.171875 20.570312 -1.410156 22.03125 -1.890625 C 23.5 -2.367188 24.765625 -3.007812 25.828125 -3.8125 C 26.890625 -4.625 27.601562 -5.507812 27.96875 -6.46875 L 29.171875 -6.015625 C 27.953125 -4.097656 26.320312 -2.539062 24.28125 -1.34375 C 22.25 -0.144531 19.84375 0.453125 17.0625 0.453125 C 14.695312 0.453125 12.59375 0.0078125 10.75 -0.875 C 8.90625 -1.757812 7.347656 -2.957031 6.078125 -4.46875 C 4.804688 -5.976562 3.847656 -7.664062 3.203125 -9.53125 C 2.566406 -11.40625 2.25 -13.332031 2.25 -15.3125 Z M 5.703125 -16.203125 L 26.703125 -16.203125 C 26.703125 -16.203125 26.738281 -16.515625 26.8125 -17.140625 C 26.894531 -17.773438 26.925781 -18.582031 26.90625 -19.5625 C 26.894531 -20.550781 26.742188 -21.59375 26.453125 -22.6875 C 26.171875 -23.78125 25.6875 -24.820312 25 -25.8125 C 24.3125 -26.800781 23.335938 -27.609375 22.078125 -28.234375 C 20.828125 -28.859375 19.195312 -29.171875 17.1875 -29.171875 C 15.425781 -29.171875 13.847656 -28.8125 12.453125 -28.09375 C 11.066406 -27.382812 9.882812 -26.414062 8.90625 -25.1875 C 7.9375 -23.957031 7.179688 -22.570312 6.640625 -21.03125 C 6.097656 -19.488281 5.785156 -17.878906 5.703125 -16.203125 Z M 5.703125 -16.203125 "/></g></g></g><g fill="#d5be76" fill-opacity="1"><g transform="translate(318.379923, 605.121782)"><g><path d="M 2.25 -12.609375 C 2.25 -15.003906 2.460938 -17.132812 2.890625 -19 C 3.328125 -20.875 3.992188 -22.679688 4.890625 -24.421875 C 5.785156 -26.160156 6.925781 -27.972656 8.3125 -29.859375 L 13.421875 -29.859375 C 11.566406 -28.472656 9.960938 -26.804688 8.609375 -24.859375 C 7.265625 -22.921875 6.234375 -20.789062 5.515625 -18.46875 C 4.796875 -16.15625 4.4375 -13.722656 4.4375 -11.171875 C 4.4375 -10.273438 4.613281 -9.273438 4.96875 -8.171875 C 5.332031 -7.066406 5.863281 -6.003906 6.5625 -4.984375 C 7.269531 -3.960938 8.15625 -3.125 9.21875 -2.46875 C 10.28125 -1.8125 11.53125 -1.484375 12.96875 -1.484375 L 23.609375 -1.484375 L 23.609375 -18.625 C 23.609375 -20.125 23.613281 -21.617188 23.625 -23.109375 C 23.644531 -24.609375 23.554688 -25.957031 23.359375 -27.15625 C 23.171875 -28.351562 22.773438 -29.253906 22.171875 -29.859375 L 28.1875 -29.859375 C 27.59375 -29.253906 27.195312 -28.351562 27 -27.15625 C 26.800781 -25.957031 26.707031 -24.609375 26.71875 -23.109375 C 26.738281 -21.617188 26.75 -20.125 26.75 -18.625 L 26.75 -11.21875 C 26.75 -9.726562 26.738281 -8.234375 26.71875 -6.734375 C 26.707031 -5.234375 26.800781 -3.882812 27 -2.6875 C 27.195312 -1.488281 27.59375 -0.59375 28.1875 0 L 12.65625 0 C 11.34375 0 10.0625 -0.34375 8.8125 -1.03125 C 7.570312 -1.71875 6.457031 -2.648438 5.46875 -3.828125 C 4.488281 -5.015625 3.707031 -6.363281 3.125 -7.875 C 2.539062 -9.382812 2.25 -10.960938 2.25 -12.609375 Z M 2.25 -12.609375 "/></g></g></g><g fill="#d5be76" fill-opacity="1"><g transform="translate(352.896086, 605.121782)"><g/></g></g><g fill="#d5be76" fill-opacity="1"><g transform="translate(375.608064, 605.121782)"><g><path d="M 1.796875 -44.890625 L 4.578125 -44.890625 C 6.878906 -44.890625 9.097656 -44.460938 11.234375 -43.609375 C 13.378906 -42.753906 15.410156 -41.59375 17.328125 -40.125 C 19.242188 -38.664062 21.015625 -37.015625 22.640625 -35.171875 C 24.273438 -33.328125 25.75 -31.414062 27.0625 -29.4375 C 28.382812 -27.46875 29.515625 -25.53125 30.453125 -23.625 C 31.398438 -21.726562 32.144531 -20.003906 32.6875 -18.453125 L 32.6875 -33.671875 C 32.6875 -35.160156 32.691406 -36.65625 32.703125 -38.15625 C 32.710938 -39.65625 32.617188 -41.003906 32.421875 -42.203125 C 32.234375 -43.398438 31.84375 -44.296875 31.25 -44.890625 L 35.46875 -44.890625 C 34.863281 -44.296875 34.460938 -43.398438 34.265625 -42.203125 C 34.078125 -41.003906 33.988281 -39.65625 34 -38.15625 C 34.019531 -36.65625 34.03125 -35.160156 34.03125 -33.671875 L 34.03125 0 L 32.6875 0 L 32.6875 -6.90625 C 32.6875 -8.019531 32.445312 -9.472656 31.96875 -11.265625 C 31.488281 -13.066406 30.796875 -15.050781 29.890625 -17.21875 C 28.992188 -19.382812 27.898438 -21.617188 26.609375 -23.921875 C 25.328125 -26.234375 23.894531 -28.457031 22.3125 -30.59375 C 20.726562 -32.726562 18.992188 -34.648438 17.109375 -36.359375 C 15.222656 -38.066406 13.226562 -39.421875 11.125 -40.421875 C 9.03125 -41.421875 6.847656 -41.921875 4.578125 -41.921875 L 4.578125 -11.21875 C 4.578125 -9.726562 4.566406 -8.234375 4.546875 -6.734375 C 4.535156 -5.234375 4.628906 -3.882812 4.828125 -2.6875 C 5.023438 -1.488281 5.421875 -0.59375 6.015625 0 L 1.796875 0 C 2.390625 -0.59375 2.785156 -1.488281 2.984375 -2.6875 C 3.179688 -3.882812 3.269531 -5.234375 3.25 -6.734375 C 3.238281 -8.234375 3.234375 -9.726562 3.234375 -11.21875 L 3.234375 -33.671875 C 3.234375 -35.160156 3.238281 -36.65625 3.25 -38.15625 C 3.269531 -39.65625 3.179688 -41.003906 2.984375 -42.203125 C 2.785156 -43.398438 2.390625 -44.296875 1.796875 -44.890625 Z M 1.796875 -44.890625 "/></g></g></g><g fill="#d5be76" fill-opacity="1"><g transform="translate(417.619654, 605.121782)"><g><path d="M 17.421875 0.453125 C 15.328125 0.453125 13.359375 0.0546875 11.515625 -0.734375 C 9.671875 -1.535156 8.050781 -2.640625 6.65625 -4.046875 C 5.269531 -5.453125 4.1875 -7.085938 3.40625 -8.953125 C 2.632812 -10.828125 2.25 -12.828125 2.25 -14.953125 C 2.25 -17.078125 2.632812 -19.066406 3.40625 -20.921875 C 4.1875 -22.773438 5.269531 -24.40625 6.65625 -25.8125 C 8.050781 -27.21875 9.671875 -28.316406 11.515625 -29.109375 C 13.359375 -29.898438 15.328125 -30.296875 17.421875 -30.296875 C 19.515625 -30.296875 21.472656 -29.898438 23.296875 -29.109375 C 25.117188 -28.316406 26.726562 -27.21875 28.125 -25.8125 C 29.519531 -24.40625 30.601562 -22.773438 31.375 -20.921875 C 32.15625 -19.066406 32.546875 -17.078125 32.546875 -14.953125 C 32.546875 -12.828125 32.15625 -10.828125 31.375 -8.953125 C 30.601562 -7.085938 29.519531 -5.453125 28.125 -4.046875 C 26.726562 -2.640625 25.117188 -1.535156 23.296875 -0.734375 C 21.472656 0.0546875 19.515625 0.453125 17.421875 0.453125 Z M 5.609375 -14.90625 C 5.609375 -12.925781 5.929688 -11.078125 6.578125 -9.359375 C 7.222656 -7.640625 8.097656 -6.128906 9.203125 -4.828125 C 10.304688 -3.523438 11.566406 -2.503906 12.984375 -1.765625 C 14.410156 -1.035156 15.890625 -0.671875 17.421875 -0.671875 C 18.941406 -0.671875 20.40625 -1.035156 21.8125 -1.765625 C 23.21875 -2.503906 24.472656 -3.523438 25.578125 -4.828125 C 26.691406 -6.128906 27.566406 -7.640625 28.203125 -9.359375 C 28.847656 -11.078125 29.171875 -12.925781 29.171875 -14.90625 C 29.171875 -16.875 28.847656 -18.71875 28.203125 -20.4375 C 27.566406 -22.164062 26.691406 -23.6875 25.578125 -25 C 24.472656 -26.320312 23.21875 -27.347656 21.8125 -28.078125 C 20.40625 -28.804688 18.941406 -29.171875 17.421875 -29.171875 C 15.890625 -29.171875 14.410156 -28.804688 12.984375 -28.078125 C 11.566406 -27.347656 10.304688 -26.320312 9.203125 -25 C 8.097656 -23.6875 7.222656 -22.164062 6.578125 -20.4375 C 5.929688 -18.71875 5.609375 -16.875 5.609375 -14.90625 Z M 5.609375 -14.90625 "/></g></g></g><g fill="#d5be76" fill-opacity="1"><g transform="translate(457.162697, 605.121782)"><g><path d="M 4.359375 -22.453125 C 3.722656 -24.003906 3.09375 -25.421875 2.46875 -26.703125 C 1.84375 -27.992188 1.019531 -29.046875 0 -29.859375 L 6.328125 -29.859375 C 6.328125 -29.859375 6.273438 -29.773438 6.171875 -29.609375 C 6.066406 -29.441406 6.015625 -29.109375 6.015625 -28.609375 C 6.015625 -28.117188 6.132812 -27.378906 6.375 -26.390625 C 6.613281 -25.410156 7.0625 -24.097656 7.71875 -22.453125 C 8.738281 -19.992188 9.628906 -17.820312 10.390625 -15.9375 C 11.148438 -14.050781 11.878906 -12.269531 12.578125 -10.59375 C 13.285156 -8.914062 14.015625 -7.164062 14.765625 -5.34375 C 15.578125 -7.34375 16.351562 -9.238281 17.09375 -11.03125 C 17.84375 -12.832031 18.597656 -14.660156 19.359375 -16.515625 C 20.128906 -18.367188 20.945312 -20.347656 21.8125 -22.453125 C 21.96875 -22.773438 22.148438 -23.265625 22.359375 -23.921875 C 22.566406 -24.585938 22.742188 -25.300781 22.890625 -26.0625 C 23.046875 -26.820312 23.09375 -27.546875 23.03125 -28.234375 C 22.96875 -28.921875 22.742188 -29.460938 22.359375 -29.859375 L 27.5625 -29.859375 C 26.539062 -29.046875 25.71875 -27.992188 25.09375 -26.703125 C 24.46875 -25.421875 23.835938 -24.003906 23.203125 -22.453125 C 22.222656 -19.992188 21.34375 -17.828125 20.5625 -15.953125 C 19.78125 -14.085938 19.050781 -12.320312 18.375 -10.65625 C 17.707031 -9 17.003906 -7.296875 16.265625 -5.546875 C 15.535156 -3.796875 14.707031 -1.796875 13.78125 0.453125 C 12.851562 -1.796875 12.019531 -3.796875 11.28125 -5.546875 C 10.550781 -7.296875 9.847656 -9 9.171875 -10.65625 C 8.503906 -12.320312 7.78125 -14.085938 7 -15.953125 C 6.21875 -17.828125 5.335938 -19.992188 4.359375 -22.453125 Z M 4.359375 -22.453125 "/></g></g></g><g fill="#d5be76" fill-opacity="1"><g transform="translate(489.479598, 605.121782)"><g><path d="M 2.25 -4.265625 C 2.25 -5.941406 2.617188 -7.5 3.359375 -8.9375 C 4.109375 -10.375 5.113281 -11.675781 6.375 -12.84375 C 7.632812 -14.007812 9.039062 -15.039062 10.59375 -15.9375 C 12.144531 -16.832031 13.742188 -17.609375 15.390625 -18.265625 C 17.035156 -18.929688 18.613281 -19.457031 20.125 -19.84375 C 21.644531 -20.226562 22.972656 -20.484375 24.109375 -20.609375 C 23.984375 -22.097656 23.660156 -23.492188 23.140625 -24.796875 C 22.617188 -26.097656 21.78125 -27.148438 20.625 -27.953125 C 19.476562 -28.765625 17.882812 -29.171875 15.84375 -29.171875 C 14.050781 -29.171875 12.351562 -28.832031 10.75 -28.15625 C 9.144531 -27.488281 7.722656 -26.691406 6.484375 -25.765625 C 5.242188 -24.835938 4.234375 -23.984375 3.453125 -23.203125 L 3.453125 -27.0625 C 5.578125 -28.113281 7.535156 -28.921875 9.328125 -29.484375 C 11.128906 -30.054688 13.078125 -30.34375 15.171875 -30.34375 C 17.953125 -30.34375 20.238281 -29.84375 22.03125 -28.84375 C 23.832031 -27.84375 25.164062 -26.476562 26.03125 -24.75 C 26.90625 -23.03125 27.34375 -21.066406 27.34375 -18.859375 L 27.34375 -11.265625 C 27.34375 -9.765625 27.332031 -8.265625 27.3125 -6.765625 C 27.300781 -5.273438 27.390625 -3.929688 27.578125 -2.734375 C 27.773438 -1.535156 28.175781 -0.640625 28.78125 -0.046875 L 10.78125 -0.046875 C 9.519531 -0.046875 8.375 -0.0351562 7.34375 -0.015625 C 6.3125 -0.00390625 5.410156 -0.09375 4.640625 -0.28125 C 3.878906 -0.476562 3.289062 -0.875 2.875 -1.46875 C 2.457031 -2.070312 2.25 -3.003906 2.25 -4.265625 Z M 24.203125 -19.4375 C 22.847656 -19.289062 21.347656 -18.96875 19.703125 -18.46875 C 18.054688 -17.976562 16.410156 -17.328125 14.765625 -16.515625 C 13.117188 -15.710938 11.597656 -14.769531 10.203125 -13.6875 C 8.816406 -12.613281 7.703125 -11.429688 6.859375 -10.140625 C 6.023438 -8.859375 5.609375 -7.46875 5.609375 -5.96875 C 5.609375 -3.125 6.925781 -1.703125 9.5625 -1.703125 L 24.203125 -1.703125 L 24.203125 -18 C 24.203125 -18.238281 24.203125 -18.476562 24.203125 -18.71875 C 24.203125 -18.957031 24.203125 -19.195312 24.203125 -19.4375 Z M 24.203125 -19.4375 "/></g></g></g><g fill="#d5be76" fill-opacity="1"><g transform="translate(524.579244, 605.121782)"><g><path d="M 7.765625 0 L 1.75 0 C 2.351562 -0.59375 2.75 -1.488281 2.9375 -2.6875 C 3.132812 -3.882812 3.222656 -5.234375 3.203125 -6.734375 C 3.191406 -8.234375 3.1875 -9.726562 3.1875 -11.21875 L 3.1875 -18.625 C 3.1875 -20.125 3.191406 -21.617188 3.203125 -23.109375 C 3.222656 -24.609375 3.132812 -25.957031 2.9375 -27.15625 C 2.75 -28.351562 2.351562 -29.253906 1.75 -29.859375 L 6.328125 -29.859375 L 6.328125 -11.21875 C 6.328125 -9.726562 6.316406 -8.234375 6.296875 -6.734375 C 6.285156 -5.234375 6.378906 -3.882812 6.578125 -2.6875 C 6.773438 -1.488281 7.171875 -0.59375 7.765625 0 Z M 4.21875 -34.109375 C 3.46875 -34.109375 2.835938 -34.363281 2.328125 -34.875 C 1.828125 -35.382812 1.578125 -36.015625 1.578125 -36.765625 C 1.578125 -37.484375 1.828125 -38.097656 2.328125 -38.609375 C 2.835938 -39.117188 3.46875 -39.375 4.21875 -39.375 C 4.9375 -39.375 5.550781 -39.117188 6.0625 -38.609375 C 6.570312 -38.097656 6.828125 -37.484375 6.828125 -36.765625 C 6.828125 -36.015625 6.570312 -35.382812 6.0625 -34.875 C 5.550781 -34.363281 4.9375 -34.109375 4.21875 -34.109375 Z M 4.21875 -34.109375 "/></g></g></g><g fill="#d5be76" fill-opacity="1"><g transform="translate(538.673718, 605.121782)"><g><path d="M 12.921875 0.453125 C 11.546875 0.453125 10.1875 0.25 8.84375 -0.15625 C 7.5 -0.5625 6.269531 -1.160156 5.15625 -1.953125 C 4.050781 -2.742188 3.175781 -3.691406 2.53125 -4.796875 C 1.894531 -5.910156 1.578125 -7.15625 1.578125 -8.53125 C 1.578125 -9.875 1.867188 -11.078125 2.453125 -12.140625 C 3.035156 -13.203125 3.816406 -13.992188 4.796875 -14.515625 C 5.785156 -15.046875 6.878906 -15.191406 8.078125 -14.953125 C 6.816406 -14.109375 5.976562 -13.175781 5.5625 -12.15625 C 5.144531 -11.144531 4.9375 -9.976562 4.9375 -8.65625 C 4.9375 -7.039062 5.296875 -5.632812 6.015625 -4.4375 C 6.734375 -3.25 7.695312 -2.332031 8.90625 -1.6875 C 10.125 -1.039062 11.453125 -0.71875 12.890625 -0.71875 C 14.472656 -0.71875 15.957031 -1.082031 17.34375 -1.8125 C 18.738281 -2.550781 19.863281 -3.59375 20.71875 -4.9375 C 21.570312 -6.28125 22 -7.867188 22 -9.703125 C 22 -11.398438 21.65625 -12.832031 20.96875 -14 C 20.28125 -15.164062 19.363281 -16.140625 18.21875 -16.921875 C 17.082031 -17.703125 15.832031 -18.382812 14.46875 -18.96875 C 13.113281 -19.550781 11.753906 -20.097656 10.390625 -20.609375 C 9.023438 -21.117188 7.773438 -21.671875 6.640625 -22.265625 C 5.503906 -22.859375 4.59375 -23.582031 3.90625 -24.4375 C 3.21875 -25.289062 2.875 -26.363281 2.875 -27.65625 C 2.875 -28.582031 3.03125 -29.179688 3.34375 -29.453125 C 3.65625 -29.722656 3.875 -29.859375 4 -29.859375 L 24.28125 -29.859375 L 24.28125 -26.796875 C 23.113281 -27.398438 21.832031 -27.875 20.4375 -28.21875 C 19.050781 -28.5625 17.222656 -28.734375 14.953125 -28.734375 L 5.203125 -28.734375 C 4.722656 -28.734375 4.4375 -28.582031 4.34375 -28.28125 C 4.257812 -27.976562 4.21875 -27.769531 4.21875 -27.65625 C 4.21875 -26.90625 4.835938 -26.191406 6.078125 -25.515625 C 7.328125 -24.847656 8.90625 -24.195312 10.8125 -23.5625 C 12.613281 -23 14.375 -22.375 16.09375 -21.6875 C 17.8125 -21 19.375 -20.175781 20.78125 -19.21875 C 22.1875 -18.257812 23.304688 -17.082031 24.140625 -15.6875 C 24.984375 -14.300781 25.40625 -12.601562 25.40625 -10.59375 C 25.40625 -8.257812 24.820312 -6.269531 23.65625 -4.625 C 22.488281 -2.976562 20.960938 -1.71875 19.078125 -0.84375 C 17.191406 0.0195312 15.140625 0.453125 12.921875 0.453125 Z M 12.921875 0.453125 "/></g></g></g><g fill="#d5be76" fill-opacity="1"><g transform="translate(212.115785, 661.664171)"><g><path d="M 19.484375 -3.1875 C 18.867188 -2.207031 17.9375 -1.363281 16.6875 -0.65625 C 15.445312 0.0507812 13.929688 0.40625 12.140625 0.40625 C 10.679688 0.40625 9.296875 0.15625 7.984375 -0.34375 C 6.679688 -0.84375 5.523438 -1.554688 4.515625 -2.484375 C 3.515625 -3.410156 2.726562 -4.515625 2.15625 -5.796875 C 1.582031 -7.078125 1.296875 -8.5 1.296875 -10.0625 C 1.296875 -11.6875 1.601562 -13.140625 2.21875 -14.421875 C 2.84375 -15.710938 3.691406 -16.804688 4.765625 -17.703125 C 5.835938 -18.597656 7.050781 -19.285156 8.40625 -19.765625 C 9.757812 -20.242188 11.175781 -20.484375 12.65625 -20.484375 C 14.46875 -20.484375 15.96875 -20.179688 17.15625 -19.578125 C 18.34375 -18.972656 19.257812 -18.269531 19.90625 -17.46875 L 16.546875 -12.734375 L 16.46875 -12.765625 C 16.863281 -13.679688 17.03125 -14.566406 16.96875 -15.421875 C 16.90625 -16.273438 16.632812 -17.035156 16.15625 -17.703125 C 15.675781 -18.367188 15.03125 -18.894531 14.21875 -19.28125 C 13.40625 -19.675781 12.453125 -19.875 11.359375 -19.875 C 10.023438 -19.875 8.785156 -19.550781 7.640625 -18.90625 C 6.503906 -18.269531 5.597656 -17.335938 4.921875 -16.109375 C 4.242188 -14.890625 3.90625 -13.382812 3.90625 -11.59375 C 3.90625 -10.082031 4.148438 -8.675781 4.640625 -7.375 C 5.140625 -6.070312 5.828125 -4.929688 6.703125 -3.953125 C 7.585938 -2.984375 8.585938 -2.21875 9.703125 -1.65625 C 10.828125 -1.101562 12 -0.828125 13.21875 -0.828125 C 13.945312 -0.828125 14.695312 -0.925781 15.46875 -1.125 C 16.25 -1.332031 16.976562 -1.625 17.65625 -2 C 18.332031 -2.382812 18.875 -2.828125 19.28125 -3.328125 Z M 19.484375 -3.1875 "/></g></g></g><g fill="#d5be76" fill-opacity="1"><g transform="translate(252.918084, 661.664171)"><g><path d="M 11.96875 -20.484375 C 13.414062 -20.484375 14.78125 -20.242188 16.0625 -19.765625 C 17.34375 -19.285156 18.472656 -18.59375 19.453125 -17.6875 C 20.441406 -16.78125 21.210938 -15.679688 21.765625 -14.390625 C 22.328125 -13.097656 22.609375 -11.648438 22.609375 -10.046875 C 22.609375 -8.429688 22.328125 -6.976562 21.765625 -5.6875 C 21.210938 -4.40625 20.441406 -3.304688 19.453125 -2.390625 C 18.472656 -1.484375 17.34375 -0.789062 16.0625 -0.3125 C 14.78125 0.164062 13.414062 0.40625 11.96875 0.40625 C 10.507812 0.40625 9.132812 0.164062 7.84375 -0.3125 C 6.550781 -0.789062 5.410156 -1.484375 4.421875 -2.390625 C 3.441406 -3.304688 2.675781 -4.40625 2.125 -5.6875 C 1.570312 -6.976562 1.296875 -8.429688 1.296875 -10.046875 C 1.296875 -11.648438 1.570312 -13.097656 2.125 -14.390625 C 2.675781 -15.679688 3.441406 -16.78125 4.421875 -17.6875 C 5.410156 -18.59375 6.550781 -19.285156 7.84375 -19.765625 C 9.132812 -20.242188 10.507812 -20.484375 11.96875 -20.484375 Z M 13.078125 -0.109375 C 14.492188 -0.109375 15.726562 -0.460938 16.78125 -1.171875 C 17.832031 -1.878906 18.648438 -2.859375 19.234375 -4.109375 C 19.816406 -5.367188 20.109375 -6.820312 20.109375 -8.46875 C 20.109375 -9.914062 19.878906 -11.320312 19.421875 -12.6875 C 18.960938 -14.0625 18.316406 -15.296875 17.484375 -16.390625 C 16.648438 -17.492188 15.671875 -18.363281 14.546875 -19 C 13.421875 -19.644531 12.175781 -19.96875 10.8125 -19.96875 C 9.394531 -19.96875 8.160156 -19.613281 7.109375 -18.90625 C 6.054688 -18.195312 5.238281 -17.21875 4.65625 -15.96875 C 4.070312 -14.726562 3.78125 -13.285156 3.78125 -11.640625 C 3.78125 -10.191406 4.007812 -8.773438 4.46875 -7.390625 C 4.925781 -6.015625 5.570312 -4.78125 6.40625 -3.6875 C 7.238281 -2.601562 8.222656 -1.734375 9.359375 -1.078125 C 10.503906 -0.429688 11.742188 -0.109375 13.078125 -0.109375 Z M 13.078125 -0.109375 "/></g></g></g><g fill="#d5be76" fill-opacity="1"><g transform="translate(296.847321, 661.664171)"><g><path d="M 15.65625 -20.078125 L 20.65625 -20.078125 L 20.65625 -19.9375 C 20.269531 -19.894531 19.910156 -19.78125 19.578125 -19.59375 C 19.242188 -19.414062 18.972656 -19.023438 18.765625 -18.421875 C 18.566406 -17.828125 18.46875 -16.878906 18.46875 -15.578125 L 18.46875 -4.765625 C 18.46875 -3.273438 18.488281 -2.113281 18.53125 -1.28125 C 18.570312 -0.445312 18.601562 0.226562 18.625 0.75 L 18.5625 0.796875 L 3.46875 -17.125 L 3.46875 -5.078125 C 3.46875 -3.773438 3.566406 -2.773438 3.765625 -2.078125 C 3.972656 -1.378906 4.242188 -0.894531 4.578125 -0.625 C 4.910156 -0.363281 5.269531 -0.203125 5.65625 -0.140625 L 5.65625 0 L 0.71875 0 L 0.71875 -0.140625 C 1.113281 -0.203125 1.472656 -0.316406 1.796875 -0.484375 C 2.128906 -0.660156 2.394531 -1.046875 2.59375 -1.640625 C 2.789062 -2.242188 2.890625 -3.195312 2.890625 -4.5 L 2.890625 -17.8125 C 2.421875 -18.382812 1.984375 -18.847656 1.578125 -19.203125 C 1.171875 -19.554688 0.738281 -19.847656 0.28125 -20.078125 L 4.5625 -20.078125 C 4.675781 -19.890625 4.804688 -19.644531 4.953125 -19.34375 C 5.109375 -19.050781 5.367188 -18.710938 5.734375 -18.328125 L 17.84375 -3.875 L 17.84375 -15 C 17.84375 -16.300781 17.738281 -17.300781 17.53125 -18 C 17.332031 -18.695312 17.070312 -19.179688 16.75 -19.453125 C 16.425781 -19.734375 16.0625 -19.894531 15.65625 -19.9375 Z M 15.65625 -20.078125 "/></g></g></g><g fill="#d5be76" fill-opacity="1"><g transform="translate(337.965175, 661.664171)"><g><path d="M 9.703125 -11.125 C 11.054688 -10.820312 12.148438 -10.453125 12.984375 -10.015625 C 13.828125 -9.578125 14.46875 -9.097656 14.90625 -8.578125 C 15.351562 -8.054688 15.65625 -7.53125 15.8125 -7 C 15.976562 -6.476562 16.0625 -5.972656 16.0625 -5.484375 C 16.0625 -4.453125 15.78125 -3.488281 15.21875 -2.59375 C 14.65625 -1.707031 13.8125 -0.984375 12.6875 -0.421875 C 11.570312 0.128906 10.171875 0.40625 8.484375 0.40625 C 6.847656 0.40625 5.410156 0.144531 4.171875 -0.375 C 2.941406 -0.90625 1.929688 -1.546875 1.140625 -2.296875 L 3.5625 -6.171875 C 3.40625 -4.910156 3.613281 -3.828125 4.1875 -2.921875 C 4.757812 -2.023438 5.546875 -1.335938 6.546875 -0.859375 C 7.554688 -0.378906 8.644531 -0.140625 9.8125 -0.140625 C 10.90625 -0.140625 11.757812 -0.335938 12.375 -0.734375 C 13 -1.140625 13.4375 -1.65625 13.6875 -2.28125 C 13.945312 -2.914062 14.078125 -3.582031 14.078125 -4.28125 C 14.078125 -5.3125 13.835938 -6.117188 13.359375 -6.703125 C 12.890625 -7.285156 12.222656 -7.742188 11.359375 -8.078125 C 10.492188 -8.410156 9.488281 -8.710938 8.34375 -8.984375 C 6.570312 -9.421875 5.207031 -9.972656 4.25 -10.640625 C 3.289062 -11.304688 2.632812 -12.023438 2.28125 -12.796875 C 1.925781 -13.578125 1.75 -14.34375 1.75 -15.09375 C 1.75 -16.695312 2.382812 -17.992188 3.65625 -18.984375 C 4.925781 -19.984375 6.671875 -20.484375 8.890625 -20.484375 C 10.515625 -20.484375 11.867188 -20.226562 12.953125 -19.71875 C 14.035156 -19.21875 14.957031 -18.601562 15.71875 -17.875 L 13.25 -13.90625 C 13.40625 -15.1875 13.226562 -16.273438 12.71875 -17.171875 C 12.21875 -18.078125 11.515625 -18.769531 10.609375 -19.25 C 9.710938 -19.726562 8.71875 -19.96875 7.625 -19.96875 C 6.269531 -19.96875 5.289062 -19.617188 4.6875 -18.921875 C 4.082031 -18.222656 3.78125 -17.335938 3.78125 -16.265625 C 3.78125 -15.140625 4.0625 -14.238281 4.625 -13.5625 C 5.195312 -12.894531 5.9375 -12.378906 6.84375 -12.015625 C 7.75 -11.648438 8.703125 -11.351562 9.703125 -11.125 Z M 9.703125 -11.125 "/></g></g></g><g fill="#d5be76" fill-opacity="1"><g transform="translate(375.210221, 661.664171)"><g><path d="M 10.0625 0.40625 C 9.363281 0.40625 8.585938 0.289062 7.734375 0.0625 C 6.878906 -0.15625 6.0625 -0.550781 5.28125 -1.125 C 4.507812 -1.695312 3.867188 -2.507812 3.359375 -3.5625 C 2.859375 -4.613281 2.609375 -5.960938 2.609375 -7.609375 L 2.609375 -18.453125 C 2.609375 -18.960938 2.390625 -19.316406 1.953125 -19.515625 C 1.523438 -19.722656 1.019531 -19.863281 0.4375 -19.9375 L 0.4375 -20.078125 L 7.140625 -20.078125 L 7.140625 -19.9375 C 6.546875 -19.863281 6.035156 -19.722656 5.609375 -19.515625 C 5.179688 -19.316406 4.96875 -18.960938 4.96875 -18.453125 L 4.96875 -7.03125 C 4.96875 -5.78125 5.164062 -4.726562 5.5625 -3.875 C 5.96875 -3.03125 6.476562 -2.351562 7.09375 -1.84375 C 7.71875 -1.34375 8.367188 -0.976562 9.046875 -0.75 C 9.722656 -0.519531 10.34375 -0.40625 10.90625 -0.40625 C 11.457031 -0.40625 12.070312 -0.519531 12.75 -0.75 C 13.425781 -0.976562 14.078125 -1.351562 14.703125 -1.875 C 15.335938 -2.40625 15.859375 -3.09375 16.265625 -3.9375 C 16.671875 -4.789062 16.875 -5.835938 16.875 -7.078125 L 16.875 -14.65625 C 16.875 -16.050781 16.765625 -17.117188 16.546875 -17.859375 C 16.335938 -18.597656 16.050781 -19.109375 15.6875 -19.390625 C 15.320312 -19.679688 14.894531 -19.84375 14.40625 -19.875 L 14.40625 -20.03125 L 19.65625 -20.03125 L 19.65625 -19.875 C 19.363281 -19.84375 19.082031 -19.769531 18.8125 -19.65625 C 18.550781 -19.550781 18.316406 -19.351562 18.109375 -19.0625 C 17.910156 -18.769531 17.753906 -18.320312 17.640625 -17.71875 C 17.523438 -17.113281 17.46875 -16.285156 17.46875 -15.234375 L 17.46875 -7.65625 C 17.46875 -5.800781 17.125 -4.28125 16.4375 -3.09375 C 15.75 -1.90625 14.84375 -1.023438 13.71875 -0.453125 C 12.601562 0.117188 11.382812 0.40625 10.0625 0.40625 Z M 10.0625 0.40625 "/></g></g></g><g fill="#d5be76" fill-opacity="1"><g transform="translate(415.324027, 661.664171)"><g><path d="M 16.609375 -5.421875 L 16.71875 -5.359375 L 15.375 0 L 15.203125 0.625 L 14.234375 0 L 0.4375 0 L 0.4375 -0.140625 C 1.019531 -0.347656 1.523438 -0.554688 1.953125 -0.765625 C 2.390625 -0.984375 2.609375 -1.273438 2.609375 -1.640625 L 2.609375 -18.453125 C 2.609375 -18.960938 2.390625 -19.316406 1.953125 -19.515625 C 1.523438 -19.722656 1.019531 -19.863281 0.4375 -19.9375 L 0.4375 -20.078125 L 7.4375 -20.078125 L 7.4375 -19.9375 C 6.707031 -19.863281 6.113281 -19.722656 5.65625 -19.515625 C 5.195312 -19.316406 4.96875 -18.960938 4.96875 -18.453125 L 4.96875 -0.453125 L 9.921875 -0.453125 C 11.066406 -0.453125 12.015625 -0.640625 12.765625 -1.015625 C 13.523438 -1.390625 14.203125 -1.941406 14.796875 -2.671875 C 15.390625 -3.410156 15.992188 -4.328125 16.609375 -5.421875 Z M 16.609375 -5.421875 "/></g></g></g><g fill="#d5be76" fill-opacity="1"><g transform="translate(452.511716, 661.664171)"><g><path d="M 19.21875 -20.078125 L 17.390625 -14.171875 L 17.265625 -14.171875 C 17.460938 -16.117188 17.226562 -17.519531 16.5625 -18.375 C 15.90625 -19.226562 14.867188 -19.65625 13.453125 -19.65625 L 10.78125 -19.65625 L 10.78125 -1.921875 C 10.78125 -1.273438 11.019531 -0.835938 11.5 -0.609375 C 11.976562 -0.378906 12.660156 -0.222656 13.546875 -0.140625 L 13.546875 0 L 5.6875 0 L 5.6875 -0.140625 C 6.5625 -0.222656 7.238281 -0.378906 7.71875 -0.609375 C 8.195312 -0.835938 8.4375 -1.273438 8.4375 -1.921875 L 8.4375 -19.65625 L 7.34375 -19.65625 C 6.25 -19.65625 5.347656 -19.546875 4.640625 -19.328125 C 3.929688 -19.117188 3.335938 -18.800781 2.859375 -18.375 C 2.390625 -17.945312 1.96875 -17.382812 1.59375 -16.6875 C 1.21875 -15.988281 0.820312 -15.148438 0.40625 -14.171875 L 0.28125 -14.171875 L 1.234375 -20.078125 Z M 19.21875 -20.078125 "/></g></g></g><g fill="#d5be76" fill-opacity="1"><g transform="translate(492.051761, 661.664171)"><g><path d="M 11.96875 -20.484375 C 13.414062 -20.484375 14.78125 -20.242188 16.0625 -19.765625 C 17.34375 -19.285156 18.472656 -18.59375 19.453125 -17.6875 C 20.441406 -16.78125 21.210938 -15.679688 21.765625 -14.390625 C 22.328125 -13.097656 22.609375 -11.648438 22.609375 -10.046875 C 22.609375 -8.429688 22.328125 -6.976562 21.765625 -5.6875 C 21.210938 -4.40625 20.441406 -3.304688 19.453125 -2.390625 C 18.472656 -1.484375 17.34375 -0.789062 16.0625 -0.3125 C 14.78125 0.164062 13.414062 0.40625 11.96875 0.40625 C 10.507812 0.40625 9.132812 0.164062 7.84375 -0.3125 C 6.550781 -0.789062 5.410156 -1.484375 4.421875 -2.390625 C 3.441406 -3.304688 2.675781 -4.40625 2.125 -5.6875 C 1.570312 -6.976562 1.296875 -8.429688 1.296875 -10.046875 C 1.296875 -11.648438 1.570312 -13.097656 2.125 -14.390625 C 2.675781 -15.679688 3.441406 -16.78125 4.421875 -17.6875 C 5.410156 -18.59375 6.550781 -19.285156 7.84375 -19.765625 C 9.132812 -20.242188 10.507812 -20.484375 11.96875 -20.484375 Z M 13.078125 -0.109375 C 14.492188 -0.109375 15.726562 -0.460938 16.78125 -1.171875 C 17.832031 -1.878906 18.648438 -2.859375 19.234375 -4.109375 C 19.816406 -5.367188 20.109375 -6.820312 20.109375 -8.46875 C 20.109375 -9.914062 19.878906 -11.320312 19.421875 -12.6875 C 18.960938 -14.0625 18.316406 -15.296875 17.484375 -16.390625 C 16.648438 -17.492188 15.671875 -18.363281 14.546875 -19 C 13.421875 -19.644531 12.175781 -19.96875 10.8125 -19.96875 C 9.394531 -19.96875 8.160156 -19.613281 7.109375 -18.90625 C 6.054688 -18.195312 5.238281 -17.21875 4.65625 -15.96875 C 4.070312 -14.726562 3.78125 -13.285156 3.78125 -11.640625 C 3.78125 -10.191406 4.007812 -8.773438 4.46875 -7.390625 C 4.925781 -6.015625 5.570312 -4.78125 6.40625 -3.6875 C 7.238281 -2.601562 8.222656 -1.734375 9.359375 -1.078125 C 10.503906 -0.429688 11.742188 -0.109375 13.078125 -0.109375 Z M 13.078125 -0.109375 "/></g></g></g><g fill="#d5be76" fill-opacity="1"><g transform="translate(535.981004, 661.664171)"><g><path d="M 15.234375 -3.78125 C 15.804688 -3.019531 16.316406 -2.414062 16.765625 -1.96875 C 17.210938 -1.519531 17.65625 -1.15625 18.09375 -0.875 C 18.539062 -0.59375 19.007812 -0.332031 19.5 -0.09375 L 19.5 0 L 14.890625 0 L 14.890625 -0.484375 L 9.1875 -8.3125 L 4.96875 -8.3125 L 4.96875 -1.640625 C 4.96875 -1.117188 5.179688 -0.757812 5.609375 -0.5625 C 6.035156 -0.363281 6.546875 -0.222656 7.140625 -0.140625 L 7.140625 0 L 0.4375 0 L 0.4375 -0.140625 C 1.019531 -0.222656 1.523438 -0.363281 1.953125 -0.5625 C 2.390625 -0.757812 2.609375 -1.117188 2.609375 -1.640625 L 2.609375 -18.453125 C 2.609375 -18.960938 2.390625 -19.316406 1.953125 -19.515625 C 1.523438 -19.722656 1.019531 -19.863281 0.4375 -19.9375 L 0.4375 -20.078125 L 10.0625 -20.078125 C 11.519531 -20.078125 12.789062 -19.878906 13.875 -19.484375 C 14.96875 -19.097656 15.820312 -18.519531 16.4375 -17.75 C 17.050781 -16.988281 17.359375 -16.035156 17.359375 -14.890625 C 17.359375 -13.359375 16.84375 -12.035156 15.8125 -10.921875 C 14.789062 -9.816406 13.394531 -9.054688 11.625 -8.640625 Z M 4.96875 -9.46875 C 5.75 -9.257812 6.488281 -9.101562 7.1875 -9 C 7.882812 -8.90625 8.632812 -8.859375 9.4375 -8.859375 C 10.757812 -8.859375 11.832031 -9 12.65625 -9.28125 C 13.476562 -9.570312 14.082031 -10.082031 14.46875 -10.8125 C 14.863281 -11.539062 15.0625 -12.566406 15.0625 -13.890625 C 15.0625 -14.578125 14.984375 -15.257812 14.828125 -15.9375 C 14.679688 -16.613281 14.378906 -17.222656 13.921875 -17.765625 C 13.472656 -18.316406 12.8125 -18.753906 11.9375 -19.078125 C 11.070312 -19.398438 9.929688 -19.5625 8.515625 -19.5625 L 4.96875 -19.5625 Z M 4.96875 -9.46875 "/></g></g></g><g fill="#d5be76" fill-opacity="1"><g transform="translate(575.234191, 661.664171)"><g><path d="M 19.21875 -3.609375 C 19.5625 -2.734375 19.867188 -2.050781 20.140625 -1.5625 C 20.410156 -1.070312 20.691406 -0.722656 20.984375 -0.515625 C 21.273438 -0.304688 21.632812 -0.171875 22.0625 -0.109375 L 22.0625 0 L 14.578125 0 L 14.578125 -0.109375 C 15.242188 -0.171875 15.796875 -0.300781 16.234375 -0.5 C 16.671875 -0.695312 16.945312 -1.023438 17.0625 -1.484375 C 17.175781 -1.953125 17.0625 -2.601562 16.71875 -3.4375 L 16.15625 -4.875 L 4.796875 -4.875 L 4.15625 -3.4375 C 3.789062 -2.613281 3.65625 -1.984375 3.75 -1.546875 C 3.851562 -1.109375 4.09375 -0.785156 4.46875 -0.578125 C 4.851562 -0.378906 5.316406 -0.222656 5.859375 -0.109375 L 5.859375 0 L 0.578125 0 L 0.578125 -0.109375 C 0.972656 -0.222656 1.328125 -0.382812 1.640625 -0.59375 C 1.960938 -0.8125 2.269531 -1.140625 2.5625 -1.578125 C 2.863281 -2.015625 3.1875 -2.644531 3.53125 -3.46875 L 9.953125 -18.296875 L 9.890625 -18.796875 L 10.296875 -19.109375 L 12.5625 -20.828125 C 12.5625 -20.691406 12.582031 -20.523438 12.625 -20.328125 C 12.675781 -20.128906 12.859375 -19.65625 13.171875 -18.90625 Z M 4.984375 -5.390625 L 15.953125 -5.390625 L 10.671875 -18.53125 Z M 4.984375 -5.390625 "/></g></g></g></svg>